<svg width="180" height="62" viewBox="0 0 180 62" fill="none" xmlns="http://www.w3.org/2000/svg">
<rect x="2" y="2" width="176" height="58" fill="white" stroke="#E51954" stroke-width="4"/>
<path d="M23.472 39C23.296 39 23.152 38.952 23.04 38.856C22.928 38.744 22.872 38.6 22.872 38.424V22.8C22.872 22.624 22.928 22.48 23.04 22.368C23.152 22.256 23.296 22.2 23.472 22.2H25.368C25.704 22.2 25.944 22.352 26.088 22.656L30.72 31.296L35.4 22.656C35.56 22.352 35.8 22.2 36.12 22.2H37.992C38.168 22.2 38.312 22.256 38.424 22.368C38.536 22.48 38.592 22.624 38.592 22.8V38.424C38.592 38.6 38.536 38.744 38.424 38.856C38.312 38.952 38.168 39 37.992 39H35.976C35.816 39 35.68 38.944 35.568 38.832C35.456 38.72 35.4 38.584 35.4 38.424V28.032L32.04 34.44C31.832 34.792 31.56 34.968 31.224 34.968H30.24C29.904 34.968 29.632 34.792 29.424 34.44L26.064 28.032V38.424C26.064 38.584 26.008 38.72 25.896 38.832C25.8 38.944 25.664 39 25.488 39H23.472ZM44.2931 43.56C44.1651 43.56 44.0531 43.512 43.9571 43.416C43.8611 43.32 43.8131 43.208 43.8131 43.08C43.8131 42.936 43.8451 42.808 43.9091 42.696L45.7811 38.256L41.1731 27.384C41.1091 27.24 41.0771 27.128 41.0771 27.048C41.0931 26.904 41.1491 26.784 41.2451 26.688C41.3411 26.576 41.4611 26.52 41.6051 26.52H43.5491C43.8531 26.52 44.0691 26.672 44.1971 26.976L47.3891 34.824L50.6771 26.976C50.8051 26.672 51.0211 26.52 51.3251 26.52H53.2451C53.3731 26.52 53.4851 26.568 53.5811 26.664C53.6931 26.76 53.7491 26.872 53.7491 27C53.7491 27.112 53.7171 27.24 53.6531 27.384L46.8611 43.104C46.7171 43.408 46.4931 43.56 46.1891 43.56H44.2931ZM54.1838 39C54.0558 39 53.9358 38.952 53.8238 38.856C53.7278 38.76 53.6798 38.64 53.6798 38.496L53.7278 38.28L59.5117 22.8C59.6237 22.4 59.9038 22.2 60.3518 22.2H62.9678C63.3838 22.2 63.6638 22.4 63.8078 22.8L69.5918 38.28C69.6078 38.328 69.6158 38.4 69.6158 38.496C69.6158 38.64 69.5678 38.76 69.4718 38.856C69.3758 38.952 69.2638 39 69.1358 39H67.0478C66.8398 39 66.6798 38.952 66.5677 38.856C66.4558 38.76 66.3838 38.656 66.3518 38.544L65.2238 35.616H58.0958L56.9678 38.544C56.8398 38.848 56.6078 39 56.2718 39H54.1838ZM64.3838 32.856L61.6478 25.44L58.9358 32.856H64.3838ZM72.1444 39C71.9844 39 71.8484 38.944 71.7364 38.832C71.6244 38.72 71.5684 38.584 71.5684 38.424V27.12C71.5684 26.96 71.6244 26.824 71.7364 26.712C71.8484 26.584 71.9844 26.52 72.1444 26.52H74.0884C74.2644 26.52 74.4084 26.576 74.5204 26.688C74.6324 26.8 74.6884 26.944 74.6884 27.12V28.104C75.0724 27.592 75.5524 27.2 76.1284 26.928C76.7204 26.656 77.3924 26.52 78.1444 26.52H79.1284C79.3044 26.52 79.4404 26.576 79.5364 26.688C79.6484 26.784 79.7044 26.92 79.7044 27.096V28.824C79.7044 28.984 79.6484 29.12 79.5364 29.232C79.4404 29.344 79.3044 29.4 79.1284 29.4H77.2564C76.5044 29.4 75.9124 29.616 75.4804 30.048C75.0484 30.48 74.8324 31.072 74.8324 31.824V38.424C74.8324 38.584 74.7764 38.72 74.6644 38.832C74.5524 38.944 74.4084 39 74.2324 39H72.1444ZM87.2162 39C85.7602 39 84.6642 38.624 83.9282 37.872C83.2082 37.104 82.8482 35.984 82.8482 34.512V29.064H80.9522C80.7922 29.064 80.6562 29.008 80.5442 28.896C80.4322 28.768 80.3762 28.624 80.3762 28.464V27.096C80.3762 26.936 80.4322 26.8 80.5442 26.688C80.6562 26.576 80.7922 26.52 80.9522 26.52H82.8482V22.536C82.8482 22.36 82.9042 22.224 83.0162 22.128C83.1282 22.016 83.2642 21.96 83.4242 21.96H85.3682C85.5442 21.96 85.6802 22.016 85.7762 22.128C85.8882 22.224 85.9442 22.36 85.9442 22.536V26.52H88.9442C89.1202 26.52 89.2562 26.576 89.3522 26.688C89.4642 26.784 89.5202 26.92 89.5202 27.096V28.464C89.5202 28.64 89.4642 28.784 89.3522 28.896C89.2402 29.008 89.1042 29.064 88.9442 29.064H85.9442V34.272C85.9442 34.96 86.0642 35.48 86.3042 35.832C86.5442 36.184 86.9442 36.36 87.5042 36.36H89.1602C89.3202 36.36 89.4562 36.416 89.5682 36.528C89.6802 36.64 89.7362 36.776 89.7362 36.936V38.424C89.7362 38.584 89.6802 38.72 89.5682 38.832C89.4722 38.944 89.3362 39 89.1602 39H87.2162ZM97.9853 39.24C96.5613 39.24 95.3373 39.024 94.3133 38.592C93.2893 38.16 92.5133 37.592 91.9853 36.888C91.4573 36.184 91.1773 35.424 91.1453 34.608C91.1453 34.464 91.1933 34.344 91.2893 34.248C91.3853 34.152 91.5053 34.104 91.6493 34.104H93.7853C93.9773 34.104 94.1213 34.144 94.2173 34.224C94.3293 34.288 94.4333 34.4 94.5293 34.56C94.6893 35.104 95.0573 35.56 95.6333 35.928C96.2093 36.296 96.9933 36.48 97.9853 36.48C99.1213 36.48 99.9773 36.296 100.553 35.928C101.129 35.544 101.417 35.016 101.417 34.344C101.417 33.896 101.265 33.528 100.961 33.24C100.673 32.952 100.233 32.704 99.6413 32.496C99.0653 32.288 98.2013 32.032 97.0493 31.728C95.1613 31.28 93.7773 30.688 92.8973 29.952C92.0333 29.2 91.6013 28.136 91.6013 26.76C91.6013 25.832 91.8493 25.008 92.3453 24.288C92.8573 23.568 93.5853 23 94.5293 22.584C95.4893 22.168 96.6013 21.96 97.8653 21.96C99.1773 21.96 100.313 22.192 101.273 22.656C102.233 23.12 102.961 23.704 103.457 24.408C103.969 25.096 104.241 25.784 104.273 26.472C104.273 26.616 104.225 26.736 104.129 26.832C104.033 26.928 103.913 26.976 103.769 26.976H101.537C101.201 26.976 100.969 26.824 100.841 26.52C100.745 26.008 100.425 25.584 99.8813 25.248C99.3373 24.896 98.6653 24.72 97.8653 24.72C96.9693 24.72 96.2653 24.888 95.7533 25.224C95.2413 25.56 94.9853 26.048 94.9853 26.688C94.9853 27.136 95.1133 27.504 95.3693 27.792C95.6253 28.08 96.0253 28.336 96.5693 28.56C97.1293 28.784 97.9293 29.032 98.9693 29.304C100.377 29.624 101.497 29.984 102.329 30.384C103.177 30.784 103.801 31.288 104.201 31.896C104.601 32.504 104.801 33.28 104.801 34.224C104.801 35.248 104.513 36.144 103.937 36.912C103.377 37.664 102.577 38.24 101.537 38.64C100.513 39.04 99.3293 39.24 97.9853 39.24ZM112.904 39C111.448 39 110.352 38.624 109.616 37.872C108.896 37.104 108.536 35.984 108.536 34.512V29.064H106.64C106.48 29.064 106.344 29.008 106.232 28.896C106.12 28.768 106.064 28.624 106.064 28.464V27.096C106.064 26.936 106.12 26.8 106.232 26.688C106.344 26.576 106.48 26.52 106.64 26.52H108.536V22.536C108.536 22.36 108.592 22.224 108.704 22.128C108.816 22.016 108.952 21.96 109.112 21.96H111.056C111.232 21.96 111.368 22.016 111.464 22.128C111.576 22.224 111.632 22.36 111.632 22.536V26.52H114.632C114.808 26.52 114.944 26.576 115.04 26.688C115.152 26.784 115.208 26.92 115.208 27.096V28.464C115.208 28.64 115.152 28.784 115.04 28.896C114.928 29.008 114.792 29.064 114.632 29.064H111.632V34.272C111.632 34.96 111.752 35.48 111.992 35.832C112.232 36.184 112.632 36.36 113.192 36.36H114.848C115.008 36.36 115.144 36.416 115.256 36.528C115.368 36.64 115.424 36.776 115.424 36.936V38.424C115.424 38.584 115.368 38.72 115.256 38.832C115.16 38.944 115.024 39 114.848 39H112.904ZM123.073 39.24C121.201 39.24 119.753 38.76 118.729 37.8C117.705 36.824 117.153 35.496 117.073 33.816L117.049 32.76L117.073 31.704C117.153 30.04 117.713 28.72 118.753 27.744C119.793 26.768 121.233 26.28 123.073 26.28C124.913 26.28 126.353 26.768 127.393 27.744C128.433 28.72 128.993 30.04 129.073 31.704C129.089 31.896 129.097 32.248 129.097 32.76C129.097 33.272 129.089 33.624 129.073 33.816C128.993 35.496 128.441 36.824 127.417 37.8C126.393 38.76 124.945 39.24 123.073 39.24ZM123.073 36.864C123.921 36.864 124.577 36.6 125.041 36.072C125.505 35.528 125.761 34.736 125.809 33.696C125.825 33.536 125.833 33.224 125.833 32.76C125.833 32.296 125.825 31.984 125.809 31.824C125.761 30.784 125.505 30 125.041 29.472C124.577 28.928 123.921 28.656 123.073 28.656C122.225 28.656 121.569 28.928 121.105 29.472C120.641 30 120.385 30.784 120.337 31.824L120.313 32.76L120.337 33.696C120.385 34.736 120.641 35.528 121.105 36.072C121.569 36.6 122.225 36.864 123.073 36.864ZM137.156 39.24C135.396 39.24 133.988 38.752 132.932 37.776C131.892 36.8 131.34 35.448 131.276 33.72L131.252 32.76L131.276 31.8C131.34 30.072 131.892 28.72 132.932 27.744C133.988 26.768 135.396 26.28 137.156 26.28C138.404 26.28 139.46 26.504 140.324 26.952C141.204 27.4 141.852 27.952 142.268 28.608C142.7 29.248 142.932 29.856 142.964 30.432C142.98 30.592 142.924 30.728 142.796 30.84C142.684 30.952 142.548 31.008 142.388 31.008H140.276C140.116 31.008 139.988 30.976 139.892 30.912C139.812 30.832 139.732 30.704 139.652 30.528C139.412 29.904 139.092 29.456 138.692 29.184C138.308 28.912 137.812 28.776 137.204 28.776C136.388 28.776 135.748 29.04 135.284 29.568C134.82 30.08 134.572 30.864 134.54 31.92L134.516 32.808L134.54 33.6C134.604 35.696 135.492 36.744 137.204 36.744C137.828 36.744 138.332 36.608 138.716 36.336C139.1 36.064 139.412 35.616 139.652 34.992C139.732 34.816 139.812 34.696 139.892 34.632C139.988 34.552 140.116 34.512 140.276 34.512H142.388C142.548 34.512 142.684 34.568 142.796 34.68C142.924 34.792 142.98 34.928 142.964 35.088C142.932 35.648 142.708 36.248 142.292 36.888C141.876 37.528 141.236 38.08 140.372 38.544C139.508 39.008 138.436 39.24 137.156 39.24ZM146.067 39C145.907 39 145.771 38.944 145.659 38.832C145.547 38.72 145.491 38.584 145.491 38.424V22.536C145.491 22.36 145.547 22.224 145.659 22.128C145.771 22.016 145.907 21.96 146.067 21.96H148.011C148.187 21.96 148.323 22.016 148.419 22.128C148.531 22.224 148.587 22.36 148.587 22.536V30.744L152.619 26.928C152.667 26.896 152.747 26.832 152.859 26.736C152.955 26.656 153.051 26.6 153.147 26.568C153.243 26.536 153.363 26.52 153.507 26.52H155.739C155.899 26.52 156.027 26.568 156.123 26.664C156.219 26.76 156.267 26.888 156.267 27.048C156.267 27.192 156.187 27.336 156.027 27.48L151.083 32.112L156.627 38.064C156.787 38.224 156.867 38.36 156.867 38.472C156.867 38.632 156.811 38.76 156.699 38.856C156.603 38.952 156.483 39 156.339 39H154.059C153.835 39 153.667 38.976 153.555 38.928C153.459 38.864 153.331 38.752 153.171 38.592L148.587 33.768V38.424C148.587 38.584 148.531 38.72 148.419 38.832C148.323 38.944 148.187 39 148.011 39H146.067Z" fill="#222222"/>
</svg>
